<?xml version="1.0" standalone="no"?>
<!DOCTYPE svg PUBLIC "-//W3C//DTD SVG 20010904//EN"
 "http://www.w3.org/TR/2001/REC-SVG-20010904/DTD/svg10.dtd">
<svg version="1.0" xmlns="http://www.w3.org/2000/svg"
 width="700.000000pt" height="700.000000pt" viewBox="0 0 700.000000 700.000000"
 preserveAspectRatio="xMidYMid meet">
<metadata>
Created by potrace 1.14, written by Peter Selinger 2001-2017
</metadata>
<g transform="translate(0.000000,700.000000) scale(0.100000,-0.100000)"
fill="#000000" stroke="none">
<path d="M3325 6469 c-212 -33 -386 -130 -520 -290 -174 -207 -232 -493 -154
-754 28 -94 54 -147 112 -233 248 -362 751 -463 1117 -223 30 19 60 40 66 46
6 5 30 27 54 49 94 85 187 237 224 366 23 81 28 115 30 214 10 356 -227 685
-573 796 -98 31 -257 44 -356 29z"/>
<path d="M6255 6234 c-18 -14 -20 -27 -21 -191 -1 -227 -12 -213 176 -213 180
0 170 -13 169 214 -1 217 8 206 -171 206 -102 -1 -138 -4 -153 -16z"/>
<path d="M5139 5336 c-2 -2 -24 -6 -49 -9 -60 -8 -173 -43 -235 -75 -197 -99
-346 -270 -414 -473 -22 -66 -24 -77 -35 -151 -28 -184 22 -400 130 -564 38
-58 177 -204 194 -204 5 0 15 -7 23 -14 41 -41 200 -110 304 -131 125 -26 322
-14 428 27 214 80 368 218 464 413 64 131 84 213 85 345 1 173 -23 277 -95
408 -49 89 -67 112 -154 197 -113 110 -259 189 -410 220 -35 7 -230 16 -236
11z"/>
<path d="M1682 5309 c-165 -27 -320 -107 -442 -229 -172 -171 -253 -371 -245
-608 12 -360 253 -666 602 -764 59 -16 107 -22 198 -22 146 -1 189 5 285 39
137 50 214 98 310 195 80 80 105 115 155 215 101 204 114 424 36 646 -82 239
-298 437 -553 509 -82 24 -257 33 -346 19z"/>
<path d="M770 3013 c-125 -20 -280 -88 -375 -163 -214 -170 -325 -400 -319
-665 2 -121 5 -140 35 -234 80 -254 271 -448 524 -536 53 -19 54 -19 158 -35
388 -59 789 205 895 590 59 214 37 426 -65 615 -118 219 -328 374 -567 420
-64 12 -230 17 -286 8z"/>
<path d="M6625 3007 c-146 -32 -254 -84 -365 -176 -135 -112 -214 -234 -266
-408 -35 -117 -38 -306 -6 -424 98 -362 410 -609 777 -613 103 -1 184 7 220
20 13 6 15 97 13 798 l-3 791 -60 12 c-66 14 -247 14 -310 0z"/>
</g>
</svg>
